HIERARCHY
ROOT Hips
{
	OFFSET	0.00	0.00	0.00
	CHANNELS 6 Xposition Yposition Zposition Zrotation Xrotation Yrotation
	JOINT LeftUpperLeg
	{
		OFFSET	 0.100000	-0.066564	-0.000554
		CHANNELS 3 Zrotation Xrotation Yrotation
		JOINT LeftLowerLeg
		{
			OFFSET	 0.002447	-0.463436	-0.005172
			CHANNELS 3 Zrotation Xrotation Yrotation
			JOINT LeftFoot
			{
				OFFSET	-0.002447	-0.420480	-0.020576
				CHANNELS 3 Zrotation Xrotation Yrotation
				JOINT LeftToes
				{
					OFFSET	 0.003734	-0.104922	 0.126407
					CHANNELS 3 Zrotation Xrotation Yrotation
					End Site
					{
						OFFSET	 0.000000	 0.000000	 0.059955
					}
				}
			}
		}
	}
	JOINT RightUpperLeg
	{
		OFFSET	-0.100000	-0.066564	-0.000554
		CHANNELS 3 Zrotation Xrotation Yrotation
		JOINT RightLowerLeg
		{
			OFFSET	-0.002447	-0.463436	-0.005146
			CHANNELS 3 Zrotation Xrotation Yrotation
			JOINT RightFoot
			{
				OFFSET	 0.002447	-0.420479	-0.020602
				CHANNELS 3 Zrotation Xrotation Yrotation
				JOINT RightToes
				{
					OFFSET	-0.003734	-0.104922	 0.126407
					CHANNELS 3 Zrotation Xrotation Yrotation
					End Site
					{
						OFFSET	-0.000000	 0.000000	 0.059955
					}
				}
			}
		}
	}
	JOINT Spine
	{
		OFFSET	 0.000000	 0.099235	-0.012273
		CHANNELS 3 Zrotation Xrotation Yrotation
		JOINT Chest
		{
			OFFSET	-0.000001	 0.116455	-0.014223
			CHANNELS 3 Zrotation Xrotation Yrotation
			JOINT UpperChest
			{
				OFFSET	 0.000001	 0.133602	-0.016265
				CHANNELS 3 Zrotation Xrotation Yrotation
				JOINT LeftShoulder
				{
					OFFSET	 0.061058	 0.091105	 0.007056
					CHANNELS 3 Zrotation Xrotation Yrotation
					JOINT LeftUpperArm
					{
						OFFSET	 0.133942	-0.002659	-0.026009
						CHANNELS 3 Zrotation Xrotation Yrotation
						JOINT LeftLowerArm
						{
							OFFSET	 0.274047	 0.000000	 0.000000
							CHANNELS 3 Zrotation Xrotation Yrotation
							JOINT LeftHand
							{
								OFFSET	 0.276145	 0.000000	 0.000000
								CHANNELS 3 Zrotation Xrotation Yrotation
								End Site
								{
									OFFSET	 0.165687	 0.000000	 0.000000
								}
							}
						}
					}
				}
				JOINT Neck
				{
					OFFSET	 0.000000	 0.150325	 0.007929
					CHANNELS 3 Zrotation Xrotation Yrotation
					JOINT Head
					{
						OFFSET	 0.000000	 0.103218	 0.031424
						CHANNELS 3 Zrotation Xrotation Yrotation
						End Site
						{
							OFFSET	 0.000000	 0.061931	 0.018855
						}
					}
				}
				JOINT RightShoulder
				{
					OFFSET	-0.061057	 0.091105	 0.007056
					CHANNELS 3 Zrotation Xrotation Yrotation
					JOINT RightUpperArm
					{
						OFFSET	-0.133943	-0.002660	-0.026009
						CHANNELS 3 Zrotation Xrotation Yrotation
						JOINT RightLowerArm
						{
							OFFSET	-0.274047	 0.000000	 0.000000
							CHANNELS 3 Zrotation Xrotation Yrotation
							JOINT RightHand
							{
								OFFSET	-0.276145	 0.000000	 0.000000
								CHANNELS 3 Zrotation Xrotation Yrotation
								End Site
								{
									OFFSET	-0.165687	 0.000000	 0.000000
								}
							}
						}
					}
				}
			}
		}
	}
}
MOTION
Frames:    6
Frame Time: 0.03333334
-0.166670	 1.040220	-0.330580	 1.538778	-0.159913	-12.544340	 4.381268	-20.713710	 9.838606	 0.042119	 11.857910	-0.013144	-8.527798	 11.076420	 8.152986	-0.000441	 0.320701	-0.000135	-5.130734	 4.236342	-30.304600	 0.019000	 14.752260	 0.010330	 3.978382	-17.437370	-14.808520	 0.000532	 1.112878	-0.000625	 3.144269	 1.018414	-0.249919	-0.000000	 0.000000	 0.000000	 6.307660	 2.026300	-0.557166	 0.901235	-5.086454	-13.003980	-70.910580	-38.469770	 15.728520	-23.090720	 27.739590	-80.772080	 34.489900	 5.167965	-26.221930	-0.203388	-0.056826	-11.672860	-0.467560	-0.177308	-11.781700	 0.873324	-1.056014	-3.601131	 60.550690	-2.804046	 24.210480	 12.031440	 15.966420	 79.325600	-19.062240	-3.394236	 14.750400
-0.163090	 1.033980	-0.321960	 0.826103	-0.002698	-13.756800	 4.715320	-18.295230	 3.635429	 0.008242	 4.739152	-0.004207	-8.190477	 10.736330	 10.211480	-0.000077	 0.338206	-0.000157	-5.888450	 3.272572	-30.747450	-0.005852	 18.081930	 0.016643	 4.878168	-19.324310	-13.050390	 0.000734	 1.288361	-0.000802	 3.296163	 1.271729	-0.228624	-0.000000	 0.000000	 0.000000	 6.614069	 2.530977	-0.532926	 0.998222	-5.215996	-13.253870	-70.797740	-39.132090	 16.304180	-23.483250	 27.932870	-80.893560	 34.511390	 4.436144	-25.754440	-0.184530	-0.195224	-11.681390	-0.264275	-0.395761	-11.651320	 1.843396	-1.002987	-4.377324	 60.023330	-1.324713	 25.877310	 11.486110	 16.179090	 79.864520	-18.552120	-2.887033	 14.948210
-0.157460	 1.029430	-0.310290	 0.229473	-0.205907	-15.005920	 5.241834	-15.924750	-1.236228	-0.004985	 0.536662	 0.000520	-7.574120	 8.223585	 14.155170	 0.000128	 0.395639	-0.000537	-6.540066	 3.585107	-30.623300	 0.016269	 19.453000	 0.019390	 6.119581	-20.186400	-11.654070	-0.000497	 1.367945	-0.000426	 3.438593	 1.368812	-0.206433	-0.000000	 0.000000	 0.000000	 6.899373	 2.727805	-0.496438	 1.048804	-4.790832	-13.607120	-70.545090	-40.644860	 15.819070	-24.079640	 28.726670	-79.378010	 34.852650	 3.042745	-26.896710	 0.263289	 0.234018	-11.304630	-0.019458	 0.035218	-11.353030	 2.504134	-0.438591	-4.833455	 60.731190	-1.313201	 26.422800	 10.651970	 17.778320	 80.005020	-18.615820	-2.662333	 14.925210
-0.157460	 1.029430	-0.310290	 0.229473	-0.205907	-15.005920	 5.241834	-15.924750	-1.236228	-0.004985	 0.536662	 0.000520	-7.574120	 8.223585	 14.155170	 0.000128	 0.395639	-0.000537	-6.540066	 3.585107	-30.623300	 0.016269	 19.453000	 0.019390	 6.119581	-20.186400	-11.654070	-0.000497	 1.367945	-0.000426	 3.438593	 1.368812	-0.206433	-0.000000	 0.000000	 0.000000	 6.899373	 2.727805	-0.496438	 1.048804	-4.790832	-13.607120	-70.545090	-40.644860	 15.819070	-24.079640	 28.726670	-79.378010	 34.852650	 3.042745	-26.896710	 0.263289	 0.234018	-11.304630	-0.019458	 0.035218	-11.353030	 2.504134	-0.438591	-4.833455	 60.731190	-1.313201	 26.422800	 10.651970	 17.778320	 80.005020	-18.615820	-2.662333	 14.925210
-0.152620	 1.028420	-0.301930	 0.041608	 0.136416	-16.362030	 5.719813	-15.769390	-0.746123	-0.002611	 0.667463	-0.000649	-6.864809	 8.051015	 15.467770	-0.000294	 0.397029	-0.000477	-6.852633	 3.756529	-30.359260	-0.009764	 18.991650	 0.026373	 7.098315	-19.883260	-10.437660	-0.000939	 1.375269	 0.000374	 3.647822	 1.205522	-0.145319	-0.000000	 0.000000	 0.000000	 7.315427	 2.404613	-0.370649	 0.695862	-4.718355	-13.599150	-70.666950	-40.857280	 16.012640	-23.951930	 28.725300	-79.556090	 34.850280	 2.808095	-27.552370	 0.255001	 0.078899	-10.767600	-0.161535	 0.398844	-10.912500	 2.225207	-0.373412	-4.704965	 60.595790	-0.847177	 27.217370	 10.569600	 17.800480	 79.680400	-18.982780	-2.489704	 14.796830
-0.148740	 1.028600	-0.294250	-0.283853	 0.577871	-18.114440	 6.581432	-16.345050	 1.453932	-0.014630	 2.479107	-0.001426	-6.837306	 10.566410	 15.840130	-0.000102	 2.547829	 0.000130	-6.661912	 4.266056	-29.786500	-0.003089	 17.319680	 0.018972	 7.732824	-18.931030	-9.331203	-0.000303	 1.425125	 0.000135	 3.658910	 1.267099	 0.024855	-0.000000	 0.000000	 0.000000	 7.335609	 2.538292	-0.031676	 0.599738	-4.329908	-13.593120	-70.843430	-41.060860	 16.195680	-23.640930	 28.401720	-80.234500	 34.748240	 3.155086	-27.453520	-0.067632	 0.493930	-10.030170	-0.085013	 0.360418	-10.370820	 1.916178	-0.006701	-4.467125	 60.636710	-0.413928	 28.047820	 10.529080	 17.766920	 79.583920	-19.497270	-2.014347	 14.401820
